name Run_20002_IK.mot
datacolumns 164
datarows 4
range 2.14 2.17
endheader
time	         pelvis_tilt	         pelvis_list	     pelvis_rotation	           pelvis_tx	           pelvis_ty	           pelvis_tz	       hip_flexion_r	     hip_adduction_r	      hip_rotation_r	        knee_angle_r	       ankle_angle_r	       hip_flexion_l	     hip_adduction_l	      hip_rotation_l	        knee_angle_l	       ankle_angle_l	    lumbar_extension	      lumbar_bending	     lumbar_rotation	          arm_flex_r	           arm_add_r	           arm_rot_r	        elbow_flex_r	           pro_sup_r	          arm_flex_l	           arm_add_l	           arm_rot_l	        elbow_flex_l	           pro_sup_l	    subtalar_angle_r	         mtp_angle_r	    subtalar_angle_l	         mtp_angle_l	        wrist_flex_r	         wrist_dev_r	        wrist_flex_l	         wrist_dev_l	             LASI_tx	             LASI_ty	             LASI_tz	             RASI_tx	             RASI_ty	             RASI_tz	             LPSI_tx	             LPSI_ty	             LPSI_tz	             RPSI_tx	             RPSI_ty	             RPSI_tz	             RTH1_tx	             RTH1_ty	             RTH1_tz	             RTH2_tx	             RTH2_ty	             RTH2_tz	             RTH3_tx	             RTH3_ty	             RTH3_tz	             LTH1_tx	             LTH1_ty	             LTH1_tz	             LTH2_tx	             LTH2_ty	             LTH2_tz	             LTH3_tx	             LTH3_ty	             LTH3_tz	             RTB1_tx	             RTB1_ty	             RTB1_tz	             RTB2_tx	             RTB2_ty	             RTB2_tz	             RTB3_tx	             RTB3_ty	             RTB3_tz	             LTB1_tx	             LTB1_ty	             LTB1_tz	             LTB2_tx	             LTB2_ty	             LTB2_tz	             LTB3_tx	             LTB3_ty	             LTB3_tz	             RCAL_tx	             RCAL_ty	             RCAL_tz	             RTOE_tx	             RTOE_ty	             RTOE_tz	             RMT5_tx	             RMT5_ty	             RMT5_tz	             LCAL_tx	             LCAL_ty	             LCAL_tz	             LTOE_tx	             LTOE_ty	             LTOE_tz	             LMT5_tx	             LMT5_ty	             LMT5_tz	             LACR_tx	             LACR_ty	             LACR_tz	             RACR_tx	             RACR_ty	             RACR_tz	             CLAV_tx	             CLAV_ty	             CLAV_tz	               C7_tx	               C7_ty	               C7_tz	             RUA1_tx	             RUA1_ty	             RUA1_tz	             RUA2_tx	             RUA2_ty	             RUA2_tz	             RUA3_tx	             RUA3_ty	             RUA3_tz	             RLEL_tx	             RLEL_ty	             RLEL_tz	             RMEL_tx	             RMEL_ty	             RMEL_tz	             LUA1_tx	             LUA1_ty	             LUA1_tz	             LUA2_tx	             LUA2_ty	             LUA2_tz	             LUA3_tx	             LUA3_ty	             LUA3_tz	             LLEL_tx	             LLEL_ty	             LLEL_tz	             LMEL_tx	             LMEL_ty	             LMEL_tz	      RFAsuperior_tx	      RFAsuperior_ty	      RFAsuperior_tz	        RFAradius_tx	        RFAradius_ty	        RFAradius_tz	          RFAulna_tx	          RFAulna_ty	          RFAulna_tz	      LFAsuperior_tx	      LFAsuperior_ty	      LFAsuperior_tz	        LFAradius_tx	        LFAradius_ty	        LFAradius_tz	          LFAulna_tx	          LFAulna_ty	          LFAulna_tz	
2.14	        -14.22588393	          1.00441447	          0.56035187	          1.03528499	          1.04169698	         -0.36266880	          5.57337647	          1.76509228	          3.02709793	        -40.62072572	        -11.43167222	         30.78881610	          5.25067718	          3.07437269	        -11.40033067	          4.42190907	          1.90138831	         -1.33751764	          9.77233590	        -20.59780776	        -18.95173846	          1.14265143	        117.15166034	        116.20533571	        -39.99307483	        -10.71319479	        -14.30937009	        121.55444951	        101.94387041	          0.00000000	          0.00000000	          0.00000000	          0.00000000	          0.00000000	          0.00000000	          0.00000000	          0.00000000	          1.05121260	          1.08069176	         -0.47032013	          1.05857743	          1.07680920	         -0.24443594	          0.89125557	          1.14708170	         -0.41913360	          0.89698532	          1.14073936	         -0.30594084	          0.97323381	          0.95939305	         -0.19502376	          0.89360505	          0.82388325	         -0.21181575	          0.90326868	          0.66841931	         -0.22752357	          1.00360847	          0.96270666	         -0.54803639	          0.96936043	          0.79862821	         -0.49785512	          1.05180857	          0.68019810	         -0.49450252	          0.81493144	          0.42484044	         -0.29721129	          0.73179242	          0.44484538	         -0.22286036	          0.65906376	          0.31363260	         -0.30013192	          1.14639642	          0.46974535	         -0.42614566	          1.07313831	          0.35321377	         -0.47689419	          1.13884824	          0.25319949	         -0.41238548	          0.49647301	          0.32438599	         -0.28288170	          0.60377558	          0.11511520	         -0.34380751	          0.56290740	          0.12585600	         -0.24562153	          1.03207179	          0.09731310	         -0.38518143	          1.26462917	          0.14005224	         -0.36781967	          1.23451487	          0.06808494	         -0.44739825	          1.01349163	          1.57749345	         -0.51975522	          1.08274888	          1.55200175	         -0.20904335	          1.11163761	          1.51952560	         -0.34670208	          0.98812436	          1.58764325	         -0.35701665	          0.99181806	          1.45813787	         -0.12592301	          1.03830783	          1.39435904	         -0.11460736	          0.98595401	          1.31783513	         -0.06019414	          0.96205067	          1.25436061	         -0.03358566	          0.92982254	          1.23784643	         -0.11707231	          0.88645758	          1.51335195	         -0.55212742	          0.89164765	          1.43228257	         -0.58324086	          0.80233380	          1.38770935	         -0.58447534	          0.76693768	          1.32593100	         -0.59682263	          0.77435962	          1.30220544	         -0.50998532	          1.05160470	          1.21661098	         -0.08290041	          1.15207941	          1.22351726	         -0.23079561	          1.16480779	          1.16806659	         -0.18997158	          0.82568355	          1.26894782	         -0.61151211	          1.01143767	          1.24953497	         -0.57269216	          0.98839450	          1.18845449	         -0.60372866	
2.15	        -14.08237648	          0.61773556	          0.46695017	          1.03594941	          1.03569974	         -0.36264314	          6.52467295	          2.31294173	          3.48955638	        -44.28221741	        -10.02093357	         30.83309026	          4.77850589	          2.43381297	        -12.39768619	          3.35170847	          1.86221850	         -1.01690321	          9.51732661	        -21.12684563	        -18.73797859	          0.59184542	        115.52900700	        116.36197401	        -39.17989356	        -10.45526742	        -14.40349202	        121.39382678	        102.22048322	          0.00000000	          0.00000000	          0.00000000	          0.00000000	          0.00000000	          0.00000000	          0.00000000	          0.00000000	          1.05189622	          1.07371852	         -0.47134202	          1.05932376	          1.07171523	         -0.24448826	          0.89199668	          1.14023249	         -0.42005556	          0.89716972	          1.13437698	         -0.30658196	          0.97511915	          0.95376584	         -0.19490508	          0.89773911	          0.81670329	         -0.21204964	          0.91075065	          0.66119109	         -0.22738918	          1.00429082	          0.95591521	         -0.54806844	          0.96986574	          0.79205245	         -0.49759500	          1.05254995	          0.67371669	         -0.49450975	          0.81878753	          0.42063455	         -0.29603734	          0.73694720	          0.44506259	         -0.22132403	          0.65795379	          0.31704047	         -0.29800118	          1.14612569	          0.46244239	         -0.42696776	          1.07188041	          0.34659505	         -0.47737172	          1.13695902	          0.24605312	         -0.41340753	          0.49424334	          0.33362532	         -0.27870270	          0.59719541	          0.12318712	         -0.34269164	          0.55686589	          0.13328609	         -0.24425441	          1.02802519	          0.09451913	         -0.38431617	          1.26117511	          0.12850843	         -0.36928950	          1.22802993	          0.05736424	         -0.44877063	          1.01382913	          1.57051539	         -0.52148865	          1.08195109	          1.54601671	         -0.20995223	          1.11157589	          1.51364576	         -0.34756863	          0.98813026	          1.58168106	         -0.35878952	          0.98945338	          1.45285526	         -0.12753765	          1.03550979	          1.38898318	         -0.11522529	          0.98206639	          1.31273861	         -0.06154652	          0.95723150	          1.24992915	         -0.03454158	          0.92641560	          1.23302827	         -0.11852432	          0.88717610	          1.50454190	         -0.55430953	          0.89376030	          1.42318965	         -0.58477990	          0.80509190	          1.37727759	         -0.58601825	          0.77056180	          1.31503151	         -0.59830995	          0.77838783	          1.29175189	         -0.51116801	          1.04665127	          1.20885870	         -0.08177604	          1.15028846	          1.20999584	         -0.22809814	          1.16036369	          1.15552052	         -0.18559987	          0.83031732	          1.25896762	         -0.61284420	          1.01622254	          1.24231364	         -0.57352333	          0.99425079	          1.18103200	         -0.60483880	
2.16	        -13.95315780	          0.26249749	          0.36966682	          1.03660359	          1.02868687	         -0.36255482	          7.60487589	          2.76261681	          3.70191398	        -48.05224383	         -8.76497274	         31.05714392	          4.30309918	          1.33495515	        -14.24352900	          1.93150278	          1.86010037	         -0.73795044	          9.14706461	        -21.65661278	        -18.53309397	          0.06630347	        113.76219775	        116.14280002	        -38.37232335	        -10.20807919	        -14.50932083	        121.15497204	        102.48013795	          0.00000000	          0.00000000	          0.00000000	          0.00000000	          0.00000000	          0.00000000	          0.00000000	          0.00000000	          1.05263208	          1.06549975	         -0.47218067	          1.05998235	          1.06552738	         -0.24456986	          0.89279003	          1.13213766	         -0.42079423	          0.89730913	          1.12693033	         -0.30724444	          0.97698607	          0.94726139	         -0.19448413	          0.90188139	          0.80872903	         -0.21208061	          0.91832204	          0.65315500	         -0.22712455	          1.00499342	          0.94798401	         -0.54776334	          0.97019043	          0.78433584	         -0.49731170	          1.05328426	          0.66627167	         -0.49478250	          0.82373474	          0.41570973	         -0.29455380	          0.74293624	          0.44468976	         -0.21984601	          0.65822314	          0.31981444	         -0.29564132	          1.14553174	          0.45355051	         -0.42851092	          1.06884864	          0.33884031	         -0.47738228	          1.13257063	          0.23745796	         -0.41408563	          0.49383548	          0.34250803	         -0.27487885	          0.59190690	          0.13047845	         -0.34092579	          0.55196259	          0.14035460	         -0.24247569	          1.01955383	          0.09391910	         -0.38230846	          1.25366416	          0.11225843	         -0.37030482	          1.21617176	          0.04596105	         -0.45164106	          1.01423974	          1.56246971	         -0.52354803	          1.08080003	          1.53911500	         -0.21080111	          1.11131548	          1.50688008	         -0.34828328	          0.98790312	          1.57474879	         -0.36058605	          0.98650777	          1.44661062	         -0.12922130	          1.03216464	          1.38261417	         -0.11585492	          0.97760443	          1.30668154	         -0.06289748	          0.95174096	          1.24464921	         -0.03550863	          0.92231532	          1.22733641	         -0.11994196	          0.88816200	          1.49468361	         -0.55675978	          0.89624058	          1.41300596	         -0.58652559	          0.80829856	          1.36567972	         -0.58796773	          0.77470124	          1.30299664	         -0.60018023	          0.78279362	          1.28023373	         -0.51268304	          1.04096838	          1.20023649	         -0.08035022	          1.14779908	          1.19523723	         -0.22432950	          1.15504468	          1.14157153	         -0.18061567	          0.83535438	          1.24773380	         -0.61441636	          1.02129510	          1.23376980	         -0.57427647	          1.00041677	          1.17224106	         -0.60587034	
2.17	        -13.88538508	          0.01265407	          0.30179763	          1.03702164	          1.02080328	         -0.36262260	          8.88709759	          2.98838492	          3.63824762	        -51.92307804	         -7.77707347	         31.59472289	          4.00568407	          0.15214293	        -17.08496932	          1.46731836	          1.92065339	         -0.57426486	          8.64567071	        -22.16988853	        -18.35686757	         -0.42704613	        111.82510273	        115.90258349	        -37.51735347	         -9.96669182	        -14.60454858	        120.79793425	        102.69501261	          0.00000000	          0.00000000	          0.00000000	          0.00000000	          0.00000000	          0.00000000	          0.00000000	          0.00000000	          1.05332178	          1.05647925	         -0.47303065	          1.06048347	          1.05845890	         -0.24457007	          0.89353719	          1.12324099	         -0.42154411	          0.89732856	          1.11863702	         -0.30807878	          0.97872729	          0.93992463	         -0.19414293	          0.90617532	          0.79988572	         -0.21188629	          0.92590388	          0.64452209	         -0.22632627	          1.00562043	          0.93925807	         -0.54701227	          0.97050802	          0.77576945	         -0.49725143	          1.05435483	          0.65828445	         -0.49537518	          0.82961531	          0.41019918	         -0.29278202	          0.74984834	          0.44354201	         -0.21837971	          0.65988535	          0.32187295	         -0.29308748	          1.14526079	          0.44396170	         -0.42981876	          1.06441910	          0.33107437	         -0.47603984	          1.12547599	          0.22839116	         -0.41280921	          0.49539805	          0.35091744	         -0.27167095	          0.58789876	          0.13676707	         -0.33849048	          0.54790262	          0.14701269	         -0.24019204	          1.00647735	          0.09456813	         -0.37894361	          1.24160421	          0.09557345	         -0.36948170	          1.19990404	          0.03762722	         -0.45445488	          1.01470120	          1.55349042	         -0.52586794	          1.07931828	          1.53131680	         -0.21166336	          1.11094313	          1.49921616	         -0.34889510	          0.98740280	          1.56675757	         -0.36249737	          0.98304189	          1.43947986	         -0.13107179	          1.02829596	          1.37533348	         -0.11659537	          0.97264770	          1.29976968	         -0.06429572	          0.94565573	          1.23867514	         -0.03648996	          0.91742841	          1.22093061	         -0.12114815	          0.88950495	          1.48382658	         -0.55949067	          0.89910449	          1.40180051	         -0.58853130	          0.81197952	          1.35299960	         -0.59032067	          0.77936534	          1.28991128	         -0.60244631	          0.78779258	          1.26759712	         -0.51448463	          1.03461764	          1.19087105	         -0.07854254	          1.14446094	          1.17914992	         -0.21988306	          1.14879362	          1.12633315	         -0.17493232	          0.84078776	          1.23529464	         -0.61620385	          1.02667591	          1.22400122	         -0.57493381	          1.00686477	          1.16212685	         -0.60676413	
